<svg xmlns="http://www.w3.org/2000/svg" width="16" height="16" viewBox="0 0 16 16">
  <path id="add_24dp_E8EAED_FILL0_wght400_GRAD0_opsz24" d="M206.857-750.857h-5.714a1.106,1.106,0,0,1-.814-.329A1.106,1.106,0,0,1,200-752a1.106,1.106,0,0,1,.329-.814,1.106,1.106,0,0,1,.814-.329h5.714v-5.714a1.106,1.106,0,0,1,.329-.814A1.106,1.106,0,0,1,208-760a1.106,1.106,0,0,1,.814.329,1.106,1.106,0,0,1,.329.814v5.714h5.714a1.106,1.106,0,0,1,.814.329A1.106,1.106,0,0,1,216-752a1.106,1.106,0,0,1-.329.814,1.106,1.106,0,0,1-.814.329h-5.714v5.714a1.106,1.106,0,0,1-.329.814A1.106,1.106,0,0,1,208-744a1.106,1.106,0,0,1-.814-.329,1.106,1.106,0,0,1-.329-.814Z" transform="translate(-200 760)" fill="#0a0a0a"/>
</svg>
