<svg xmlns="http://www.w3.org/2000/svg" width="24" height="24" viewBox="0 0 24 24">
  <path id="monitoring_24dp_E8EAED_FILL0_wght400_GRAD0_opsz24" d="M121.333-759.52a1.24,1.24,0,0,1-.95-.416,1.464,1.464,0,0,1-.383-1.031v-1.447a1.463,1.463,0,0,1,.383-1.031,1.24,1.24,0,0,1,.95-.416,1.24,1.24,0,0,1,.95.416,1.463,1.463,0,0,1,.383,1.031v1.447a1.464,1.464,0,0,1-.383,1.031A1.24,1.24,0,0,1,121.333-759.52Zm5.333,0a1.24,1.24,0,0,1-.95-.416,1.464,1.464,0,0,1-.383-1.031v-7.958a1.464,1.464,0,0,1,.383-1.031,1.24,1.24,0,0,1,.95-.416,1.24,1.24,0,0,1,.95.416,1.464,1.464,0,0,1,.383,1.031v7.958a1.464,1.464,0,0,1-.383,1.031A1.24,1.24,0,0,1,126.667-759.52Zm5.333,0a1.24,1.24,0,0,1-.95-.416,1.464,1.464,0,0,1-.383-1.031v-5.064a1.464,1.464,0,0,1,.383-1.031,1.24,1.24,0,0,1,.95-.416,1.24,1.24,0,0,1,.95.416,1.464,1.464,0,0,1,.383,1.031v5.064a1.464,1.464,0,0,1-.383,1.031A1.24,1.24,0,0,1,132-759.52Zm5.333,0a1.24,1.24,0,0,1-.95-.416,1.464,1.464,0,0,1-.383-1.031V-768.2a1.464,1.464,0,0,1,.383-1.031,1.24,1.24,0,0,1,.95-.416,1.24,1.24,0,0,1,.95.416,1.464,1.464,0,0,1,.383,1.031v7.234a1.464,1.464,0,0,1-.383,1.031A1.24,1.24,0,0,1,137.333-759.52Zm5.333,0a1.24,1.24,0,0,1-.95-.416,1.464,1.464,0,0,1-.383-1.031v-13.021a1.464,1.464,0,0,1,.383-1.031,1.24,1.24,0,0,1,.95-.416,1.24,1.24,0,0,1,.95.416,1.464,1.464,0,0,1,.383,1.031v13.021a1.464,1.464,0,0,1-.383,1.031A1.24,1.24,0,0,1,142.667-759.52Zm-8-13.058a2.454,2.454,0,0,1-1.017-.217,2.977,2.977,0,0,1-.883-.615l-3.433-3.726-7.067,7.668a1.192,1.192,0,0,1-.95.416,1.312,1.312,0,0,1-.95-.452,1.479,1.479,0,0,1-.35-1.031,1.476,1.476,0,0,1,.383-.995l7.033-7.632a2.491,2.491,0,0,1,.883-.633,2.645,2.645,0,0,1,1.017-.2,2.771,2.771,0,0,1,1.033.2,2.178,2.178,0,0,1,.867.633l3.433,3.726,7.067-7.668a1.193,1.193,0,0,1,.95-.416,1.312,1.312,0,0,1,.95.452,1.479,1.479,0,0,1,.35,1.031,1.476,1.476,0,0,1-.383.995l-7.033,7.632a2.541,2.541,0,0,1-.867.615A2.569,2.569,0,0,1,134.667-772.578Z" transform="translate(-120 783.52)"/>
</svg>
