<svg xmlns="http://www.w3.org/2000/svg" width="6.563" height="11.909" viewBox="0 0 6.563 11.909">
  <path id="arrow_back_ios_new_24dp_E8EAED_FILL0_wght400_GRAD0_opsz24" d="M274.711-853.558l4.616,4.616a.726.726,0,0,1,.228.549.783.783,0,0,1-.243.55.753.753,0,0,1-.55.235.753.753,0,0,1-.55-.235l-4.836-4.82a1.255,1.255,0,0,1-.283-.424,1.261,1.261,0,0,1-.094-.471,1.26,1.26,0,0,1,.094-.471,1.254,1.254,0,0,1,.283-.424l4.836-4.836a.735.735,0,0,1,.557-.228.791.791,0,0,1,.557.243.753.753,0,0,1,.236.549.753.753,0,0,1-.236.55Z" transform="translate(-273 859.516)"/>
</svg>
